<svg xmlns="http://www.w3.org/2000/svg" width="1201" height="782.271" viewBox="0 0 1201 782.271">
  <g id="Digital_Loan_Management_banner" data-name="Digital Loan Management banner" transform="translate(-410.5 -194.161)">
    <g id="undraw_transfer_money_rywa" transform="translate(410.5 108.16)">
      <ellipse id="Ellipse_118" data-name="Ellipse 118" cx="148" cy="23.68" rx="148" ry="23.68" transform="translate(0 750.32)" fill="#f2f2f2"/>
      <ellipse id="Ellipse_119" data-name="Ellipse 119" cx="229" cy="36.64" rx="229" ry="36.64" transform="translate(743 794.992)" fill="#e5e1e1"/>
      <path id="Path_658" data-name="Path 658" d="M869.62,435.945s1.95,6.5-9.1,12.348-14.3,27.945-1.3,34.444,16.9,14.947,10.4,20.8-18.2,21.446-2.6,25.345,17.547,11.7,13,14.947,10.4-5.849,10.4-5.849,2.6,15.6,16.247,11.7,51.99-77.985,32.494-88.383S869.62,435.945,869.62,435.945Z" transform="translate(51.5 43.503)" fill="#2f2e41"/>
      <path id="Path_659" data-name="Path 659" d="M893.175,498.7s6.741,23.594-5.056,25.279A46.052,46.052,0,0,0,867.9,532.4l21.909,28.65h40.447l25.279-25.279s-33.706-25.279-26.965-40.447S893.175,498.7,893.175,498.7Z" transform="translate(51.5 43.503)" fill="#fff"/>
      <path id="Path_661" data-name="Path 661" d="M852.787,740.779l38.762,13.482,26.964,1.685-1.685-23.594L861.213,715.9Z" transform="translate(102 94.663)" fill="#e5e1e1"/>
      <path id="Path_662" data-name="Path 662" d="M953,786.883s0,23.594,3.371,23.594,48.874-5.056,62.356,0,33.706-13.482,23.594-23.594-26.606-25.279-36.9-21.909S953,776.771,953,776.771Z" transform="translate(51.5 43.503)" fill="#575a89"/>
      <path id="Path_663" data-name="Path 663" d="M829.134,764.974s-20.224,40.447-6.741,43.818,28.65-1.685,30.335-3.371,25.279-8.426,28.65-5.056,3.371-13.482,3.371-13.482Z" transform="translate(51.5 43.503)" fill="#575a89"/>
      <path id="Path_664" data-name="Path 664" d="M845.987,709.359s-32.021,43.818-8.427,55.615,136.509,11.8,144.936,0,11.8-48.874,0-52.244S845.987,709.359,845.987,709.359Z" transform="translate(51.5 43.503)" fill="#0a4777"/>
      <circle id="Ellipse_120" data-name="Ellipse 120" cx="38.762" cy="38.762" r="38.762" transform="translate(919.395 476.473)" fill="#fff"/>
      <path id="Path_666" data-name="Path 666" d="M845.987,532.4l33.706-6.741s8.427,26.965,35.391,21.909,33.706-21.909,33.706-21.909,20.224,8.427,21.909,8.427,23.594,8.426,23.594,13.482-25.279,55.615-25.279,55.615l3.371,91.006-124.712-3.371L856.1,601.5Z" transform="translate(51.5 43.503)" fill="#7ea"/>
      <path id="Path_667" data-name="Path 667" d="M827.448,576.22s-10.112,89.321-3.371,96.062,33.706,25.279,33.706,25.279V677.338L844.3,652.059l13.482-58.985Z" transform="translate(48.615 44.529)" fill="#e5e1e1"/>
      <path id="Path_668" data-name="Path 668" d="M1001.88,573.692s-5.9,91.849-5.9,95.219-15.168,15.168-20.224,15.168-8.427-8.427-8.427-8.427l11.8-13.482-8.426-69.1Z" transform="translate(51.5 43.503)" fill="#e5e1e1"/>
      <path id="Path_669" data-name="Path 669" d="M985.866,702.618s75.838-42.132,77.524,0-38.762,58.985-38.762,58.985-104.488,31.332-108.7,19.879-12.64-29.991-5.9-31.676,15.168-5.056,18.538-1.685,45.5-25.279,45.5-25.279Z" transform="translate(51.5 43.503)" fill="#0a4777"/>
      <path id="Path_670" data-name="Path 670" d="M1021.26,697.562s-15.168,6.741-20.224,11.8-26.965,13.482-26.965,13.482" transform="translate(51.5 43.503)" fill="none" stroke="#000" stroke-miterlimit="10" stroke-width="2" opacity="0.2"/>
      <path id="Path_671" data-name="Path 671" d="M856.1,535.773,845.987,532.4s-37.076,38.762-25.279,48.874,18.538,13.482,21.909,16.853,20.224,5.056,20.224,5.056Z" transform="translate(48.615 44.529)" fill="#7ea"/>
      <path id="Path_672" data-name="Path 672" d="M979.125,544.2l15.168,3.371s11.8,25.279,15.168,28.65-5.056,1.685-10.112,8.426-10.112,18.538-20.224,18.538-23.594-16.853-23.594-16.853Z" transform="translate(51.5 43.503)" fill="#7ea"/>
      <path id="Path_673" data-name="Path 673" d="M849.357,717.785s-64.041-45.5-85.95-11.8,94.377,79.209,111.23,85.95,32.021,13.482,32.021,13.482,15.168-37.076,15.168-43.818-11.8-6.741-15.168-6.741-18.538-3.371-21.909-8.426S849.357,717.785,849.357,717.785Z" transform="translate(51.5 43.503)" fill="#0a4777"/>
      <path id="Path_674" data-name="Path 674" d="M813.966,705.988s16.853,13.482,32.021,16.853,20.224,11.8,20.224,11.8" transform="translate(-50.5 -51.16)" fill="none" stroke="#000" stroke-miterlimit="10" stroke-width="2" opacity="0.2"/>
      <path id="Path_675" data-name="Path 675" d="M837.732,642.622l1.346,71.356a8.933,8.933,0,0,0,9.032,8.764L980.9,721.25a8.933,8.933,0,0,0,8.818-8.418l4.031-69.864a8.933,8.933,0,0,0-8.918-9.447H846.663a8.933,8.933,0,0,0-8.931,9.1Z" transform="translate(51.5 43.503)" fill="#575a89"/>
      <path id="Path_676" data-name="Path 676" d="M908.728,423.04s2.16,7.2-10.079,13.679-15.839,30.957-1.44,38.156,18.718,16.559,11.519,23.038-20.158,23.758-2.88,28.077,19.438,12.959,14.4,16.558,11.519-6.479,11.519-6.479,2.88,17.278,18,12.959,30.2-82.84,13.35-103.063C947.445,427.16,908.728,423.04,908.728,423.04Z" transform="translate(51.5 43.503)" fill="#2f2e41"/>
      <path id="Path_677" data-name="Path 677" d="M904.13,415.629c0-10.547,31.559-2.969,45.088,11.758,9.369,10.2,23.6,25.54,11.674,36.355s20.439,24.992,29.119,29.29,25.817,17.443,10.343,26.261-15.224,17.72-9.4,19.827-12.839-3.134-12.839-3.134S980,553.4,964.277,553.319s-60.833-86.495-50.056-110.513C924.24,420.473,904.13,415.629,904.13,415.629Z" transform="translate(51.5 43.503)" fill="#2f2e41"/>
      <path id="Path_678" data-name="Path 678" d="M910.965,413.318c-42.2-2.541-46.433,29.223-46.433,29.223.292,18.382,29.483,9.425,37.59,12.165,9.781-7.036,28.636-20.35,42.12-29.851a63.773,63.773,0,0,0-33.277-11.537Z" transform="translate(51.5 43.503)" fill="#2f2e41"/>
      <path id="Path_679" data-name="Path 679" d="M943.138,732.889S916.046,528.8,624.169,309.92" transform="translate(-46.336 -47.895)" fill="none" stroke="#3f3d56" stroke-miterlimit="10" stroke-width="2"/>
      <path id="Path_680" data-name="Path 680" d="M583.431,254.891l.474,1.945-9.583,2.324,3.019,9.389-1.906.611-3.675-11.436Z" fill="#3f3d56"/>
      <path id="Path_683" data-name="Path 683" d="M261.273,791.45l6.382-4.741s4.224,23.6-.49,27.132-22.391,9.428-22.391,16.5-40.068,16.5-41.246,5.892,3.535-16.5,3.535-16.5,18.855-18.855,21.212-22.391,8.249-10.606,8.249-10.606Z" transform="translate(-50.5 -51.16)" fill="#2f2e41"/>
      <path id="Path_684" data-name="Path 684" d="M167,498.014s.177,1.037.483,2.934c.283,1.685.672,4.066,1.143,7,4.95,30.2,19.386,119.119,18.408,122.053-1.178,3.535-9.428,16.5,0,20.034.907.342,1.886,1.449,2.934,3.194a68.5,68.5,0,0,1,4.985,11.761c5.621,16.31,11.632,42.413,15.108,60.49,1.52,7.943,2.557,14.33,2.864,17.677a9.613,9.613,0,0,1,.035,2.333c-1.178,4.714,7.071,21.212,10.606,25.926s9.428,9.428,8.249,14.141,29.462,17.677,33,9.428,3.535-12.963,4.714-15.32,2.357-18.855-3.535-21.212-2.357-43.6-8.249-51.852c-1.968-2.746-4.973-12.044-8.12-23.227-1.237-4.384-2.487-9.051-3.712-13.729-4.973-19.174-9.38-38.465-9.38-38.465L237.7,493.3l-64.815-8.249-1.662,3.665-3.312,7.271Z" transform="translate(-50.5 -51.16)" fill="#0a4777"/>
      <path id="Path_685" data-name="Path 685" d="M163.461,724.278s-9.428-9.428-14.141,0-9.428,45.96-17.677,54.209-18.855,49.5-7.071,51.852S149.32,826.8,150.5,819.733s25.926-43.6,25.926-47.138-16.5-16.5-16.5-16.5Z" transform="translate(-50.5 -51.16)" fill="#2f2e41"/>
      <path id="Path_686" data-name="Path 686" d="M308.412,433.2s-15.32,137.88-18.855,150.843-22.391,62.458-28.283,70.708-43.6,75.422-48.317,78.957-14.141,12.963-14.141,12.963-17.677,17.677-20.034,21.212-22.391-7.071-23.569-14.141,1.178-18.855,2.357-23.569-2.357-11.785,1.178-15.32,21.212-21.212,21.212-29.461,30.64-56.566,42.425-67.172,9.428-28.283,9.428-28.283V518.047L167,498.013s3.535-56.566,11.785-56.566S295.449,422.592,308.412,433.2Z" transform="translate(-50.5 -51.16)" fill="#0a4777"/>
      <circle id="Ellipse_121" data-name="Ellipse 121" cx="38.889" cy="38.889" r="38.889" transform="translate(123.567 107.457)" fill="#fff"/>
      <path id="Path_687" data-name="Path 687" d="M225.919,228.146s4.714,17.677,10.606,22.391-15.32,24.748-15.32,24.748l-40.068,2.357-7.071-22.391s12.963-25.926,9.428-42.425S225.919,228.146,225.919,228.146Z" transform="translate(-50.5 -51.16)" fill="#fff"/>
      <path id="Path_688" data-name="Path 688" d="M242.418,248.18s-10.606,1.178-12.963,4.714-18.855,14.141-31.818,11.785-21.212-5.892-23.569-4.714S167,285.891,167,285.891L179.96,323.6,177.6,427.307l-3.535,28.283s-7.071-9.428,21.212-3.535,64.815-4.714,76.6-5.892,31.819-4.714,33-11.785-3.535-33-3.535-33l-18.855-78.957L270.7,280Z" transform="translate(-50.5 -51.16)" fill="#7ea"/>
      <path id="Path_689" data-name="Path 689" d="M231.271,242.861s9.968-5.287,13.5-.573,48.317,11.785,48.317,15.32,9.428,98.991,7.071,107.24,4.714,17.677,4.714,17.677l8.249,35.354s22.391,67.172,12.963,69.529-17.677,0-21.212,0-2.357-44.781-11.785-56.566S270.7,389.6,268.344,383.7,236.526,296.5,237.7,287.069,231.271,242.861,231.271,242.861Z" transform="translate(-50.5 -51.16)" fill="#1387e3"/>
      <path id="Path_690" data-name="Path 690" d="M182.316,248.18s-9.428,0-10.606,2.357-12.963,17.677-17.677,21.212S132.821,290.6,132.821,294.14,167,323.6,167,323.6s14.141,69.529,7.071,93.1S156.39,496.835,161.1,500.371s15.32,4.714,15.32,0,7.071-55.388,12.963-65.994,23.569-77.778,16.5-96.634S182.316,248.18,182.316,248.18Z" transform="translate(-50.5 -51.16)" fill="#1387e3"/>
      <path id="Path_691" data-name="Path 691" d="M337.873,364.847s1.178,36.532-11.785,55.388S304.876,460.3,304.876,460.3s-21.212-5.892-24.748-12.963S254.2,446.161,254.2,443.8s27.1-14.142,29.462-16.5,10.606-2.357,15.32-7.071,5.892-15.32,5.892-15.32l4.714-30.64Z" transform="translate(-50.5 -51.16)" fill="#fff"/>
      <path id="Path_692" data-name="Path 692" d="M239.741,173.528c2.992-.272,6.077-.571,8.721-2,5.925-3.2,7.5-12.294,2.986-17.291a22.344,22.344,0,0,0-4.143-3.331l-8.958-6.1c-3.962-2.7-8.017-5.437-12.638-6.709-4.179-1.15-8.594-1.032-12.92-.763-8.4.522-16.849,1.6-24.749,4.5s-15.268,7.751-20.053,14.673c-7.585,10.974-7.689,25.775-3.511,38.444s12.112,23.7,19.931,34.51l4.057-19.795c.361-1.763.829-3.7,2.295-4.739,3.645-2.593,8.1,2.731,12.576,2.7,2.874-.022,5.287-2.386,6.376-5.046s1.161-5.605,1.413-8.468c.534-6.064,2.653-14.5,8.4-17.846C224.872,173.153,233.726,174.074,239.741,173.528Z" transform="translate(-50.5 -51.16)" fill="#2f2e41"/>
      <path id="Path_693" data-name="Path 693" d="M237.56,498.965s-3.98,115.127-6.337,118.663,0-119.025,0-119.025Z" transform="translate(-50.5 -51.16)" opacity="0.1"/>
      <path id="Path_694" data-name="Path 694" d="M283.664,257.607h9.428s40.068,54.209,35.354,57.745,0,12.963,0,12.963l9.428,17.677s11.785,10.606,8.249,12.963-8.249,11.785-8.249,11.785-23.569-3.535-30.64,10.606l-15.284-19.3Z" transform="translate(-50.5 -51.16)" fill="#1387e3"/>
      <rect id="Rectangle_185" data-name="Rectangle 185" width="35" height="65.224" transform="translate(204.144 237.242) rotate(-22.438)" fill="#2f2e41"/>
      <ellipse id="Ellipse_122" data-name="Ellipse 122" cx="7" cy="6.431" rx="7" ry="6.431" transform="translate(221.324 250.025) rotate(-22.438)" fill="#7ea"/>
      <path id="Path_695" data-name="Path 695" d="M260.1,351.884S175.246,422.592,161.1,400.2s15.32-41.246,15.32-41.246,25.926,1.178,55.388-17.677l29.461-12.963s26.9-38.4,36.061-23.777S281.69,344.608,260.1,351.884Z" transform="translate(-50.5 -51.16)" fill="#fff"/>
      <path id="Path_696" data-name="Path 696" d="M145.784,289.426l-12.963,4.714v35.354l-4.714,7.071s1.178,14.142,4.714,17.677,10.606,2.357,8.249,10.606a44.667,44.667,0,0,0-1.178,16.5s21.212,27.1,22.391,23.569,17.677-47.138,20.034-47.138-23.569-68.351-23.569-68.351Z" transform="translate(-50.5 -51.16)" fill="#1387e3"/>
      <path id="Path_697" data-name="Path 697" d="M300.752,467.963s12.185-11.785,6.092-12.374-27.3-12.374-30.84-6.482S300.752,467.963,300.752,467.963Z" transform="translate(-50.5 -51.16)" fill="#0a4777"/>
      <ellipse id="Ellipse_123" data-name="Ellipse 123" cx="17" cy="9" rx="17" ry="9" transform="translate(465 174)" fill="#57b894"/>
      <path id="Path_698" data-name="Path 698" d="M597.5,264.16q-57.5-21.716-115,0v-47a199.038,199.038,0,0,1,115,0Z" transform="translate(-50.5 -51.16)" fill="none" stroke="#3f3d56" stroke-miterlimit="10" stroke-width="2"/>
      <path id="Path_699" data-name="Path 699" d="M581.5,254.44q-41.5-15.674-83,0V220.519a143.653,143.653,0,0,1,83,0Z" transform="translate(-50.5 -51.16)" fill="none" stroke="#3f3d56" stroke-miterlimit="10" stroke-width="2"/>
      <ellipse id="Ellipse_124" data-name="Ellipse 124" cx="17" cy="9" rx="17" ry="9" transform="translate(471 170)" fill="none" stroke="#3f3d56" stroke-miterlimit="10" stroke-width="2"/>
      <ellipse id="Ellipse_125" data-name="Ellipse 125" cx="17" cy="9" rx="17" ry="9" transform="matrix(0.98, -0.2, 0.2, 0.98, 474.242, 234.13)" fill="#57b894"/>
      <path id="Path_700" data-name="Path 700" d="M612.886,307.1q-60.681-9.779-112.677,23l-9.4-46.051a199.038,199.038,0,0,1,112.677-23Z" transform="translate(-50.5 -51.16)" fill="none" stroke="#3f3d56" stroke-miterlimit="10" stroke-width="2"/>
      <path id="Path_701" data-name="Path 701" d="M595.266,300.777q-43.8-7.058-81.323,16.6l-6.784-33.236a143.653,143.653,0,0,1,81.323-16.6Z" transform="translate(-50.5 -51.16)" fill="none" stroke="#3f3d56" stroke-miterlimit="10" stroke-width="2"/>
      <ellipse id="Ellipse_126" data-name="Ellipse 126" cx="17" cy="9" rx="17" ry="9" transform="matrix(0.98, -0.2, 0.2, 0.98, 479.321, 229.011)" fill="none" stroke="#3f3d56" stroke-miterlimit="10" stroke-width="2"/>
      <ellipse id="Ellipse_127" data-name="Ellipse 127" cx="9" cy="17" rx="9" ry="17" transform="translate(471.592 303.282) rotate(-86.019)" fill="#57b894"/>
      <path id="Path_702" data-name="Path 702" d="M602.435,381.085q-55.854-25.656-114.723-7.983l3.263-46.887A199.038,199.038,0,0,1,605.7,334.2Z" transform="translate(-50.5 -51.16)" fill="none" stroke="#3f3d56" stroke-miterlimit="10" stroke-width="2"/>
      <path id="Path_703" data-name="Path 703" d="M587.149,370.278q-40.312-18.517-82.8-5.762l2.355-33.84a143.653,143.653,0,0,1,82.8,5.762Z" transform="translate(-50.5 -51.16)" fill="none" stroke="#3f3d56" stroke-miterlimit="10" stroke-width="2"/>
      <ellipse id="Ellipse_128" data-name="Ellipse 128" cx="9" cy="17" rx="9" ry="17" transform="translate(477.856 299.709) rotate(-86.019)" fill="none" stroke="#3f3d56" stroke-miterlimit="10" stroke-width="2"/>
      <path id="Path_704" data-name="Path 704" d="M465.422,265.251s-73.5-10.055-125.982,20.7" transform="translate(-50.5 -51.16)" fill="none" stroke="#3f3d56" stroke-miterlimit="10" stroke-width="2"/>
      <path id="Path_705" data-name="Path 705" d="M290.708,224.459l1.909.6-2.984,9.4,9.594,2.289-.467,1.947-11.683-2.791Z" fill="#3f3d56"/>
    </g>
    <g id="undraw_online_transactions_02ka" transform="translate(760.772 468.974)">
      <rect id="Rectangle_186" data-name="Rectangle 186" width="167.332" height="114" transform="translate(148.965 143.802)" fill="#7ea"/>
      <path id="Path_706" data-name="Path 706" d="M579.2,453.218H414.537a2,2,0,0,0-2,2V566.551a2,2,0,0,0,2,2H579.2a2,2,0,0,0,2-2V455.219a2,2,0,0,0-2-2Zm.667,113.333a.665.665,0,0,1-.667.667H414.537a.665.665,0,0,1-.667-.667V455.219a.668.668,0,0,1,.667-.667H579.2a.668.668,0,0,1,.667.667Z" transform="translate(-253.571 -322.75)" fill="#3f3d56"/>
      <rect id="Rectangle_187" data-name="Rectangle 187" width="75.333" height="8.667" rx="2" transform="translate(167.632 209.135)" fill="#3f3d56"/>
      <path id="Path_707" data-name="Path 707" d="M698.723,599.748h-24a2,2,0,0,0-2,2v18.665a2,2,0,0,0,2,2h24a2,2,0,0,0,2-2V601.749a2,2,0,0,0-2-2Zm.667,20.666a.668.668,0,0,1-.667.667h-24a.668.668,0,0,1-.667-.667V601.749a.665.665,0,0,1,.667-.667h24a.665.665,0,0,1,.667.667Z" transform="translate(-387.094 -397.945)" fill="#3f3d56"/>
      <rect id="Rectangle_188" data-name="Rectangle 188" width="16.359" height="3.385" rx="1.692" transform="translate(291.452 206.109)" fill="#3f3d56"/>
      <rect id="Rectangle_189" data-name="Rectangle 189" width="16.359" height="3.385" rx="1.692" transform="translate(291.452 211.443)" fill="#3f3d56"/>
      <rect id="Rectangle_190" data-name="Rectangle 190" width="16.359" height="3.385" rx="1.692" transform="translate(291.452 216.776)" fill="#3f3d56"/>
      <rect id="Rectangle_191" data-name="Rectangle 191" width="34.667" height="14.667" rx="2" transform="translate(169.632 138.469)" fill="#3f3d56"/>
      <path id="Path_708" data-name="Path 708" d="M469.908,479.8c0,2.577-1.194,4.667-2.667,4.667s-2.667-2.089-2.667-4.667,2.667-4.667,2.667-4.667S469.908,477.22,469.908,479.8Z" transform="translate(-280.276 -333.995)" fill="#7ea"/>
      <path id="Path_709" data-name="Path 709" d="M784.475,161.837H783.5V270.7H672.992v.974H784.475Z" transform="translate(-345.361 -83.05)" fill="#3f3d56"/>
      <path id="Path_710" data-name="Path 710" d="M188.476,271.672H76.992V161.837h.974V270.7h110.51Z" transform="translate(-39.51 -83.05)" fill="#3f3d56"/>
      <path id="Path_711" data-name="Path 711" d="M984.115,203.629h-.624v-1.092h.468a.312.312,0,0,0,.312-.312V196.61a.312.312,0,0,0-.312-.312h-.468v-3.189a6.794,6.794,0,0,0-6.794-6.794H976v-.78a.312.312,0,0,0-.312-.312h-5.616a.312.312,0,0,0-.312.312v.78H868.3a6.794,6.794,0,0,0-6.794,6.794V337.693a6.794,6.794,0,0,0,6.794,6.794h108.4a6.794,6.794,0,0,0,6.794-6.794V209.869h.624a.312.312,0,0,0,.312-.312v-5.616a.312.312,0,0,0-.31-.312Z" transform="translate(-483.97 -185.222)" fill="#3f3d56"/>
      <rect id="Rectangle_192" data-name="Rectangle 192" width="111.689" height="148.193" rx="1.905" transform="translate(383.15 5.536)" fill="#d0cde1"/>
      <rect id="Rectangle_193" data-name="Rectangle 193" width="19.16" height="5.678" rx="2" transform="translate(426.169 78.164)" fill="#3f3d56"/>
      <rect id="Rectangle_194" data-name="Rectangle 194" width="65.487" height="2.433" rx="1.217" transform="translate(403.006 33.958)" fill="#3f3d56"/>
      <rect id="Rectangle_195" data-name="Rectangle 195" width="65.487" height="2.433" rx="1.217" transform="translate(403.006 41.664)" fill="#3f3d56"/>
      <rect id="Rectangle_196" data-name="Rectangle 196" width="65.487" height="2.433" rx="1.217" transform="translate(403.006 49.369)" fill="#3f3d56"/>
      <rect id="Rectangle_197" data-name="Rectangle 197" width="65.487" height="2.433" rx="1.217" transform="translate(403.006 57.075)" fill="#3f3d56"/>
      <rect id="Rectangle_198" data-name="Rectangle 198" width="65.487" height="2.433" rx="1.217" transform="translate(403.006 64.781)" fill="#3f3d56"/>
      <circle id="Ellipse_129" data-name="Ellipse 129" cx="20.34" cy="20.34" r="20.34" transform="translate(413.091 107.199)" fill="#7ea"/>
      <path id="Path_712" data-name="Path 712" d="M961.755,425.664a25.5,25.5,0,1,1,25.5-25.5,25.5,25.5,0,0,1-25.5,25.5Zm0-50.075a24.574,24.574,0,1,0,24.574,24.574A24.574,24.574,0,0,0,961.755,375.589Z" transform="translate(-522.329 -282.438)" fill="#3f3d56"/>
      <path id="Path_713" data-name="Path 713" d="M161.7,235.105h-.834V212.255a13.226,13.226,0,0,0-13.225-13.226H99.23A13.225,13.225,0,0,0,86,212.255V337.616A13.225,13.225,0,0,0,99.23,350.842h48.413a13.226,13.226,0,0,0,13.226-13.226V251.371h.834Z" transform="translate(-86.004 -192.308)" fill="#3f3d56"/>
      <path id="Path_714" data-name="Path 714" d="M161.9,217.382V342.561a9.877,9.877,0,0,1-9.877,9.879H103.377a9.877,9.877,0,0,1-9.875-9.877V217.382a9.876,9.876,0,0,1,9.874-9.875h5.9a4.692,4.692,0,0,0,4.345,6.463H141.36a4.692,4.692,0,0,0,4.345-6.463h6.319a9.876,9.876,0,0,1,9.875,9.874Z" transform="translate(-89.852 -196.658)" fill="#d0cde1"/>
      <rect id="Rectangle_199" data-name="Rectangle 199" width="13.032" height="3.862" rx="1.931" transform="translate(31.333 84.598)" fill="#3f3d56"/>
      <rect id="Rectangle_200" data-name="Rectangle 200" width="44.541" height="1.655" rx="0.828" transform="translate(15.578 54.531)" fill="#3f3d56"/>
      <rect id="Rectangle_201" data-name="Rectangle 201" width="44.541" height="1.655" rx="0.828" transform="translate(15.578 59.772)" fill="#3f3d56"/>
      <rect id="Rectangle_202" data-name="Rectangle 202" width="44.541" height="1.655" rx="0.828" transform="translate(15.578 65.013)" fill="#3f3d56"/>
      <rect id="Rectangle_203" data-name="Rectangle 203" width="44.541" height="1.655" rx="0.828" transform="translate(15.578 70.254)" fill="#3f3d56"/>
      <rect id="Rectangle_204" data-name="Rectangle 204" width="44.541" height="1.655" rx="0.828" transform="translate(15.578 75.495)" fill="#3f3d56"/>
      <circle id="Ellipse_130" data-name="Ellipse 130" cx="14.027" cy="14.027" r="14.027" transform="translate(19.99 110.774)" fill="#7ea"/>
      <path id="Path_715" data-name="Path 715" d="M145.833,426.725a17.586,17.586,0,1,1,17.587-17.586A17.586,17.586,0,0,1,145.833,426.725Zm0-34.533a16.947,16.947,0,1,0,16.947,16.947,16.947,16.947,0,0,0-16.947-16.947Z" transform="translate(-107.682 -291.105)" fill="#3f3d56"/>
      <rect id="Rectangle_205" data-name="Rectangle 205" width="13.631" height="13.631" transform="translate(71.81 182.653)" fill="#d0cde1"/>
      <path id="Path_716" data-name="Path 716" d="M261.061,554.964H244.509V538.412h16.552Zm-15.832-.72h15.113V539.132H245.229Z" transform="translate(-167.344 -366.469)" fill="#3f3d56"/>
      <rect id="Rectangle_206" data-name="Rectangle 206" width="13.631" height="13.631" transform="translate(377.05 182.653)" fill="#d0cde1"/>
      <path id="Path_717" data-name="Path 717" d="M888.061,554.964H871.509V538.412h16.552Zm-15.832-.72h15.113V539.132H872.229Z" transform="translate(-489.103 -366.469)" fill="#3f3d56"/>
    </g>
  </g>
</svg>
